# Blender v2.81 (sub 16) OBJ File: ''
# www.blender.org
mtllib adri.mtl
o Cube_Cube.001
v -1.000000 -1.000000 1.000000
v -1.000000 1.000000 1.000000
v -1.000000 -1.000000 -1.000000
v -1.000000 1.000000 -1.000000
v 1.000000 -1.000000 1.000000
v 1.000000 1.000000 1.000000
v 1.000000 -1.000000 -1.000000
v 1.000000 1.000000 -1.000000
vt 0.375000 0.000000
vt 0.625000 0.000000
vt 0.625000 0.250000
vt 0.375000 0.250000
vt 0.625000 0.500000
vt 0.375000 0.500000
vt 0.625000 0.750000
vt 0.375000 0.750000
vt 0.625000 1.000000
vt 0.375000 1.000000
vt 0.125000 0.500000
vt 0.125000 0.750000
vt 0.875000 0.500000
vt 0.875000 0.750000
vn -1.0000 0.0000 0.0000
vn 0.0000 0.0000 -1.0000
vn 1.0000 0.0000 0.0000
vn 0.0000 0.0000 1.0000
vn 0.0000 -1.0000 0.0000
vn 0.0000 1.0000 0.0000
usemtl None
s off
f 1/1/1 2/2/1 4/3/1 3/4/1
f 3/4/2 4/3/2 8/5/2 7/6/2
f 7/6/3 8/5/3 6/7/3 5/8/3
f 5/8/4 6/7/4 2/9/4 1/10/4
f 3/11/5 7/6/5 5/8/5 1/12/5
f 8/5/6 4/13/6 2/14/6 6/7/6
o Cube.001_Cube.002
v -0.398821 2.992025 0.398821
v -0.398821 3.789666 0.398821
v -0.398821 2.992025 -0.398821
v -0.398821 3.789666 -0.398821
v 0.398821 2.992025 0.398821
v 0.398821 3.789666 0.398821
v 0.398821 2.992025 -0.398821
v 0.398821 3.789666 -0.398821
vt 0.375000 0.000000
vt 0.625000 0.000000
vt 0.625000 0.250000
vt 0.375000 0.250000
vt 0.625000 0.500000
vt 0.375000 0.500000
vt 0.625000 0.750000
vt 0.375000 0.750000
vt 0.625000 1.000000
vt 0.375000 1.000000
vt 0.125000 0.500000
vt 0.125000 0.750000
vt 0.875000 0.500000
vt 0.875000 0.750000
vn -1.0000 0.0000 0.0000
vn 0.0000 0.0000 -1.0000
vn 1.0000 0.0000 0.0000
vn 0.0000 0.0000 1.0000
vn 0.0000 -1.0000 0.0000
vn 0.0000 1.0000 0.0000
usemtl None
s off
f 9/15/7 10/16/7 12/17/7 11/18/7
f 11/18/8 12/17/8 16/19/8 15/20/8
f 15/20/9 16/19/9 14/21/9 13/22/9
f 13/22/10 14/21/10 10/23/10 9/24/10
f 11/25/11 15/20/11 13/22/11 9/26/11
f 16/19/12 12/27/12 10/28/12 14/21/12
o Icosphere
v 3.491075 -1.000000 0.000000
v 4.214683 -0.447220 0.525725
v 3.214687 -0.447220 0.850649
v 2.596649 -0.447216 0.000000
v 3.214687 -0.447220 -0.850649
v 4.214683 -0.447220 -0.525725
v 3.767463 0.447220 0.850649
v 2.767468 0.447220 0.525725
v 2.767468 0.447220 -0.525725
v 3.767463 0.447220 -0.850649
v 4.385501 0.447216 0.000000
v 3.491075 1.000000 0.000000
v 3.328619 -0.850654 0.499995
v 3.916398 -0.850654 0.309011
v 3.753944 -0.525738 0.809012
v 4.341723 -0.525736 0.000000
v 3.916398 -0.850654 -0.309011
v 2.965345 -0.850652 0.000000
v 2.802886 -0.525736 0.499997
v 3.328619 -0.850654 -0.499995
v 2.802886 -0.525736 -0.499997
v 3.753944 -0.525738 -0.809012
v 4.442133 0.000000 0.309013
v 4.442133 0.000000 -0.309013
v 3.491075 0.000000 1.000000
v 4.078861 0.000000 0.809017
v 2.540017 0.000000 0.309013
v 2.903289 0.000000 0.809017
v 2.903289 0.000000 -0.809017
v 2.540017 0.000000 -0.309013
v 4.078861 0.000000 -0.809017
v 3.491075 0.000000 -1.000000
v 4.179265 0.525736 0.499997
v 3.228206 0.525738 0.809012
v 2.640427 0.525736 0.000000
v 3.228206 0.525738 -0.809012
v 4.179265 0.525736 -0.499997
v 3.653531 0.850654 0.499995
v 4.016805 0.850652 0.000000
v 3.065752 0.850654 0.309011
v 3.065752 0.850654 -0.309011
v 3.653531 0.850654 -0.499995
vt 0.818181 0.000000
vt 0.772726 0.078731
vt 0.863635 0.078731
vt 0.727272 0.157461
vt 0.681818 0.078731
vt 0.636363 0.157461
vt 0.090909 0.000000
vt 0.045454 0.078731
vt 0.136363 0.078731
vt 0.272727 0.000000
vt 0.227273 0.078731
vt 0.318182 0.078731
vt 0.454545 0.000000
vt 0.409090 0.078731
vt 0.500000 0.078731
vt 0.681818 0.236191
vt 0.909090 0.157461
vt 0.818181 0.157461
vt 0.863635 0.236191
vt 0.181818 0.157461
vt 0.090909 0.157461
vt 0.136363 0.236191
vt 0.363636 0.157461
vt 0.272727 0.157461
vt 0.318182 0.236191
vt 0.545454 0.157461
vt 0.454545 0.157461
vt 0.500000 0.236191
vt 0.772726 0.236191
vt 0.954545 0.236191
vt 0.227273 0.236191
vt 0.409090 0.236191
vt 0.590909 0.236191
vt 0.818181 0.314921
vt 0.727272 0.314921
vt 0.772726 0.393651
vt 1.000000 0.314921
vt 0.909091 0.314921
vt 0.954545 0.393651
vt 0.272727 0.314921
vt 0.181818 0.314921
vt 0.227273 0.393651
vt 0.454545 0.314921
vt 0.363636 0.314921
vt 0.409090 0.393651
vt 0.636363 0.314921
vt 0.545454 0.314921
vt 0.590909 0.393651
vt 0.500000 0.393651
vt 0.545454 0.472382
vt 0.318182 0.393651
vt 0.363636 0.472382
vt 0.136363 0.393651
vt 0.181818 0.472382
vt 0.090909 0.314921
vt 0.863635 0.393651
vt 0.909090 0.472382
vt 0.681818 0.393651
vt 0.727272 0.472382
vt 0.045454 0.236191
vt 0.000000 0.157461
vt 0.590909 0.078731
vt 0.636363 0.000000
vn 0.1024 -0.9435 0.3151
vn 0.7002 -0.6617 0.2680
vn -0.2680 -0.9435 0.1947
vn -0.2680 -0.9435 -0.1947
vn 0.1024 -0.9435 -0.3151
vn 0.9050 -0.3304 0.2680
vn 0.0247 -0.3304 0.9435
vn -0.8897 -0.3304 0.3151
vn -0.5746 -0.3304 -0.7488
vn 0.5346 -0.3304 -0.7779
vn 0.8026 -0.1256 0.5831
vn -0.3066 -0.1256 0.9435
vn -0.9921 -0.1256 0.0000
vn -0.3066 -0.1256 -0.9435
vn 0.8026 -0.1256 -0.5831
vn 0.4089 0.6617 0.6284
vn -0.4713 0.6617 0.5831
vn -0.7002 0.6617 -0.2680
vn 0.0385 0.6617 -0.7488
vn 0.7240 0.6617 -0.1947
vn 0.2680 0.9435 -0.1947
vn 0.4911 0.7947 -0.3568
vn 0.4089 0.6617 -0.6284
vn -0.1024 0.9435 -0.3151
vn -0.1876 0.7947 -0.5773
vn -0.4713 0.6617 -0.5831
vn -0.3313 0.9435 0.0000
vn -0.6071 0.7947 0.0000
vn -0.7002 0.6617 0.2680
vn -0.1024 0.9435 0.3151
vn -0.1876 0.7947 0.5773
vn 0.0385 0.6617 0.7488
vn 0.2680 0.9435 0.1947
vn 0.4911 0.7947 0.3568
vn 0.7240 0.6617 0.1947
vn 0.8897 0.3304 -0.3151
vn 0.7947 0.1876 -0.5773
vn 0.5746 0.3304 -0.7488
vn -0.0247 0.3304 -0.9435
vn -0.3035 0.1876 -0.9342
vn -0.5346 0.3304 -0.7779
vn -0.9050 0.3304 -0.2680
vn -0.9822 0.1876 0.0000
vn -0.9050 0.3304 0.2680
vn -0.5346 0.3304 0.7779
vn -0.3035 0.1876 0.9342
vn -0.0247 0.3304 0.9435
vn 0.5746 0.3304 0.7488
vn 0.7947 0.1876 0.5773
vn 0.8897 0.3304 0.3151
vn 0.3066 0.1256 -0.9435
vn 0.3035 -0.1876 -0.9342
vn 0.0247 -0.3304 -0.9435
vn -0.8026 0.1256 -0.5831
vn -0.7947 -0.1876 -0.5773
vn -0.8897 -0.3304 -0.3151
vn -0.8026 0.1256 0.5831
vn -0.7947 -0.1876 0.5773
vn -0.5746 -0.3304 0.7488
vn 0.3066 0.1256 0.9435
vn 0.3035 -0.1876 0.9342
vn 0.5346 -0.3304 0.7779
vn 0.9921 0.1256 0.0000
vn 0.9822 -0.1876 0.0000
vn 0.9050 -0.3304 -0.2680
vn 0.4713 -0.6617 -0.5831
vn 0.1876 -0.7947 -0.5773
vn -0.0385 -0.6617 -0.7488
vn -0.4089 -0.6617 -0.6284
vn -0.4911 -0.7947 -0.3568
vn -0.7240 -0.6617 -0.1947
vn -0.7240 -0.6617 0.1947
vn -0.4911 -0.7947 0.3568
vn -0.4089 -0.6617 0.6284
vn 0.7002 -0.6617 -0.2680
vn 0.6071 -0.7947 0.0000
vn 0.3313 -0.9435 0.0000
vn -0.0385 -0.6617 0.7488
vn 0.1876 -0.7947 0.5773
vn 0.4713 -0.6617 0.5831
usemtl None
s off
f 17/29/13 30/30/13 29/31/13
f 18/32/14 30/33/14 32/34/14
f 17/35/15 29/36/15 34/37/15
f 17/38/16 34/39/16 36/40/16
f 17/41/17 36/42/17 33/43/17
f 18/32/18 32/34/18 39/44/18
f 19/45/19 31/46/19 41/47/19
f 20/48/20 35/49/20 43/50/20
f 21/51/21 37/52/21 45/53/21
f 22/54/22 38/55/22 47/56/22
f 18/32/23 39/44/23 42/57/23
f 19/45/24 41/47/24 44/58/24
f 20/48/25 43/50/25 46/59/25
f 21/51/26 45/53/26 48/60/26
f 22/54/27 47/56/27 40/61/27
f 23/62/28 49/63/28 54/64/28
f 24/65/29 50/66/29 56/67/29
f 25/68/30 51/69/30 57/70/30
f 26/71/31 52/72/31 58/73/31
f 27/74/32 53/75/32 55/76/32
f 55/76/33 58/77/33 28/78/33
f 55/76/34 53/75/34 58/77/34
f 53/75/35 26/71/35 58/77/35
f 58/73/36 57/79/36 28/80/36
f 58/73/37 52/72/37 57/79/37
f 52/72/38 25/68/38 57/79/38
f 57/70/39 56/81/39 28/82/39
f 57/70/40 51/69/40 56/81/40
f 51/69/41 24/83/41 56/81/41
f 56/67/42 54/84/42 28/85/42
f 56/67/43 50/66/43 54/84/43
f 50/66/44 23/62/44 54/84/44
f 54/64/45 55/86/45 28/87/45
f 54/64/46 49/63/46 55/86/46
f 49/63/47 27/74/47 55/86/47
f 40/61/48 53/75/48 27/74/48
f 40/61/49 47/56/49 53/75/49
f 47/56/50 26/71/50 53/75/50
f 48/60/51 52/72/51 26/71/51
f 48/60/52 45/53/52 52/72/52
f 45/53/53 25/68/53 52/72/53
f 46/59/54 51/69/54 25/68/54
f 46/59/55 43/50/55 51/69/55
f 43/50/56 24/83/56 51/69/56
f 44/58/57 50/66/57 24/65/57
f 44/58/58 41/47/58 50/66/58
f 41/47/59 23/62/59 50/66/59
f 42/57/60 49/63/60 23/62/60
f 42/57/61 39/44/61 49/63/61
f 39/44/62 27/74/62 49/63/62
f 47/56/63 48/60/63 26/71/63
f 47/56/64 38/55/64 48/60/64
f 38/55/65 21/51/65 48/60/65
f 45/53/66 46/59/66 25/68/66
f 45/53/67 37/52/67 46/59/67
f 37/52/68 20/48/68 46/59/68
f 43/50/69 44/88/69 24/83/69
f 43/50/70 35/49/70 44/88/70
f 35/49/71 19/89/71 44/88/71
f 41/47/72 42/57/72 23/62/72
f 41/47/73 31/46/73 42/57/73
f 31/46/74 18/32/74 42/57/74
f 39/44/75 40/61/75 27/74/75
f 39/44/76 32/34/76 40/61/76
f 32/34/77 22/54/77 40/61/77
f 33/43/78 38/55/78 22/54/78
f 33/43/79 36/42/79 38/55/79
f 36/42/80 21/51/80 38/55/80
f 36/40/81 37/52/81 21/51/81
f 36/40/82 34/39/82 37/52/82
f 34/39/83 20/48/83 37/52/83
f 34/37/84 35/49/84 20/48/84
f 34/37/85 29/36/85 35/49/85
f 29/36/86 19/89/86 35/49/86
f 32/34/87 33/90/87 22/54/87
f 32/34/88 30/33/88 33/90/88
f 30/33/89 17/91/89 33/90/89
f 29/31/90 31/46/90 19/45/90
f 29/31/91 30/30/91 31/46/91
f 30/30/92 18/32/92 31/46/92
o Cone
v 0.000000 -1.000000 -4.712783
v 0.195090 -1.000000 -4.693568
v 0.382683 -1.000000 -4.636662
v 0.555570 -1.000000 -4.544252
v 0.707107 -1.000000 -4.419889
v 0.831470 -1.000000 -4.268353
v 0.923880 -1.000000 -4.095466
v 0.980785 -1.000000 -3.907873
v 1.000000 -1.000000 -3.712783
v 0.980785 -1.000000 -3.517692
v 0.923880 -1.000000 -3.330099
v 0.831470 -1.000000 -3.157212
v 0.707107 -1.000000 -3.005676
v 0.555570 -1.000000 -2.881313
v 0.382683 -1.000000 -2.788903
v 0.195090 -1.000000 -2.731997
v -0.000000 -1.000000 -2.712783
v -0.195091 -1.000000 -2.731997
v -0.382684 -1.000000 -2.788903
v -0.555571 -1.000000 -2.881313
v -0.707107 -1.000000 -3.005676
v -0.831470 -1.000000 -3.157213
v -0.923880 -1.000000 -3.330100
v 0.000000 1.000000 -3.712783
v -0.980785 -1.000000 -3.517693
v -1.000000 -1.000000 -3.712784
v -0.980785 -1.000000 -3.907874
v -0.923879 -1.000000 -4.095467
v -0.831469 -1.000000 -4.268354
v -0.707106 -1.000000 -4.419890
v -0.555569 -1.000000 -4.544253
v -0.382682 -1.000000 -4.636662
v -0.195089 -1.000000 -4.693568
vt 0.250000 0.490000
vt 0.250000 0.250000
vt 0.296822 0.485388
vt 0.341844 0.471731
vt 0.383337 0.449553
vt 0.419706 0.419706
vt 0.449553 0.383337
vt 0.471731 0.341844
vt 0.485388 0.296822
vt 0.490000 0.250000
vt 0.485388 0.203178
vt 0.471731 0.158156
vt 0.449553 0.116663
vt 0.419706 0.080294
vt 0.383337 0.050447
vt 0.341844 0.028269
vt 0.296822 0.014612
vt 0.250000 0.010000
vt 0.203178 0.014612
vt 0.158156 0.028269
vt 0.116663 0.050447
vt 0.080294 0.080294
vt 0.050447 0.116663
vt 0.028269 0.158156
vt 0.014611 0.203179
vt 0.010000 0.250000
vt 0.014612 0.296822
vt 0.028269 0.341844
vt 0.050447 0.383337
vt 0.080295 0.419706
vt 0.116663 0.449553
vt 0.158156 0.471731
vt 0.203179 0.485389
vt 0.750000 0.490000
vt 0.796822 0.485388
vt 0.841844 0.471731
vt 0.883337 0.449553
vt 0.919706 0.419706
vt 0.949553 0.383337
vt 0.971731 0.341844
vt 0.985388 0.296822
vt 0.990000 0.250000
vt 0.985388 0.203178
vt 0.971731 0.158156
vt 0.949553 0.116663
vt 0.919706 0.080294
vt 0.883337 0.050447
vt 0.841844 0.028269
vt 0.796822 0.014612
vt 0.750000 0.010000
vt 0.703178 0.014612
vt 0.658156 0.028269
vt 0.616663 0.050447
vt 0.580294 0.080294
vt 0.550447 0.116663
vt 0.528269 0.158156
vt 0.514611 0.203179
vt 0.510000 0.250000
vt 0.514612 0.296822
vt 0.528269 0.341844
vt 0.550447 0.383337
vt 0.580295 0.419706
vt 0.616663 0.449553
vt 0.658156 0.471731
vt 0.703179 0.485389
vn 0.0878 0.4455 -0.8910
vn 0.2599 0.4455 -0.8567
vn 0.4220 0.4455 -0.7896
vn 0.5680 0.4455 -0.6921
vn 0.6921 0.4455 -0.5680
vn 0.7896 0.4455 -0.4220
vn 0.8567 0.4455 -0.2599
vn 0.8910 0.4455 -0.0878
vn 0.8910 0.4455 0.0878
vn 0.8567 0.4455 0.2599
vn 0.7896 0.4455 0.4220
vn 0.6921 0.4455 0.5680
vn 0.5680 0.4455 0.6921
vn 0.4220 0.4455 0.7896
vn 0.2599 0.4455 0.8567
vn 0.0878 0.4455 0.8910
vn -0.0878 0.4455 0.8910
vn -0.2599 0.4455 0.8567
vn -0.4220 0.4455 0.7896
vn -0.5680 0.4455 0.6921
vn -0.6921 0.4455 0.5680
vn -0.7896 0.4455 0.4220
vn -0.8567 0.4455 0.2599
vn -0.8910 0.4455 0.0878
vn -0.8910 0.4455 -0.0878
vn -0.8567 0.4455 -0.2599
vn -0.7896 0.4455 -0.4220
vn -0.6921 0.4455 -0.5680
vn -0.5680 0.4455 -0.6921
vn -0.4220 0.4455 -0.7896
vn -0.2599 0.4455 -0.8567
vn -0.0878 0.4455 -0.8910
vn 0.0000 -1.0000 -0.0000
usemtl None
s off
f 59/92/93 82/93/93 60/94/93
f 60/94/94 82/93/94 61/95/94
f 61/95/95 82/93/95 62/96/95
f 62/96/96 82/93/96 63/97/96
f 63/97/97 82/93/97 64/98/97
f 64/98/98 82/93/98 65/99/98
f 65/99/99 82/93/99 66/100/99
f 66/100/100 82/93/100 67/101/100
f 67/101/101 82/93/101 68/102/101
f 68/102/102 82/93/102 69/103/102
f 69/103/103 82/93/103 70/104/103
f 70/104/104 82/93/104 71/105/104
f 71/105/105 82/93/105 72/106/105
f 72/106/106 82/93/106 73/107/106
f 73/107/107 82/93/107 74/108/107
f 74/108/108 82/93/108 75/109/108
f 75/109/109 82/93/109 76/110/109
f 76/110/110 82/93/110 77/111/110
f 77/111/111 82/93/111 78/112/111
f 78/112/112 82/93/112 79/113/112
f 79/113/113 82/93/113 80/114/113
f 80/114/114 82/93/114 81/115/114
f 81/115/115 82/93/115 83/116/115
f 83/116/116 82/93/116 84/117/116
f 84/117/117 82/93/117 85/118/117
f 85/118/118 82/93/118 86/119/118
f 86/119/119 82/93/119 87/120/119
f 87/120/120 82/93/120 88/121/120
f 88/121/121 82/93/121 89/122/121
f 89/122/122 82/93/122 90/123/122
f 90/123/123 82/93/123 91/124/123
f 91/124/124 82/93/124 59/92/124
f 59/125/125 60/126/125 61/127/125 62/128/125 63/129/125 64/130/125 65/131/125 66/132/125 67/133/125 68/134/125 69/135/125 70/136/125 71/137/125 72/138/125 73/139/125 74/140/125 75/141/125 76/142/125 77/143/125 78/144/125 79/145/125 80/146/125 81/147/125 83/148/125 84/149/125 85/150/125 86/151/125 87/152/125 88/153/125 89/154/125 90/155/125 91/156/125
