# Blender v2.79 (sub 0) OBJ File: 'untitled.blend'
# www.blender.org
mtllib room.mtl
o Cube
v -10.735582 -10.735582 10.735582
v -10.735582 10.735582 10.735582
v -10.735582 -10.735582 -10.735582
v -10.735582 10.735582 -10.735582
v 10.735582 -10.735582 10.735582
v 10.735582 10.735582 10.735582
v 10.735582 -10.735582 -10.735582
v 10.735582 10.735582 -10.735582
vt 0.666667 0.666667
vt 0.333333 0.333333
vt 0.666667 0.333333
vt 0.333333 0.333333
vt 0.666667 0.000000
vt 0.666667 0.333333
vt 0.333333 0.666667
vt 0.000000 0.333333
vt 0.333333 0.333333
vt 0.000000 0.000000
vt 0.333333 0.000000
vt 1.000000 0.000000
vt 1.000000 0.333333
vt 0.333333 0.666667
vt 0.000000 1.000000
vt 0.000000 0.666667
vt 0.333333 0.666667
vt 0.333333 0.000000
vt 0.000000 0.666667
vt 0.000000 0.333333
vt 0.666667 0.000000
vt 0.333333 1.000000
vn 1.0000 0.0000 0.0000
vn 0.0000 0.0000 1.0000
vn -1.0000 0.0000 0.0000
vn 0.0000 0.0000 -1.0000
vn 0.0000 1.0000 0.0000
vn 0.0000 -1.0000 0.0000
usemtl None
s off
f 3/1/1 2/2/1 1/3/1
f 7/4/2 4/5/2 3/6/2
f 5/7/3 8/8/3 7/4/3
f 1/9/4 6/10/4 5/11/4
f 1/3/5 7/12/5 3/13/5
f 6/14/6 4/15/6 8/16/6
f 3/1/1 4/17/1 2/2/1
f 7/4/2 8/18/2 4/5/2
f 5/7/3 6/19/3 8/8/3
f 1/9/4 2/20/4 6/10/4
f 1/3/5 5/21/5 7/12/5
f 6/14/6 2/22/6 4/15/6
